<svg width="27" height="28" viewBox="0 0 27 28" fill="none" xmlns="http://www.w3.org/2000/svg">
<path d="M13.6797 27.776L13.3102 27.7692C6.19092 27.5385 0.497455 21.5577 0.52792 14.2478C0.558854 6.82532 6.50123 0.802534 13.792 0.834141C21.0696 0.865691 26.9748 6.93984 26.9438 14.3623C26.9128 21.7983 20.9573 27.8075 13.6797 27.776ZM11.0982 19.6821C11.4928 20.0879 12.1136 20.0906 12.4983 19.6882L17.1273 15.0337C17.313 14.8459 17.4198 14.5905 17.4209 14.321C17.422 14.0516 17.3174 13.7952 17.1333 13.6058L12.5432 8.91143C12.3591 8.70856 12.1086 8.61318 11.8576 8.61209C11.5935 8.61095 11.3421 8.70415 11.1432 8.90536C10.7584 9.30782 10.7558 9.94096 11.1504 10.3333L15.0303 14.3107L11.1174 18.2542C10.7195 18.6432 10.7168 19.2898 11.0982 19.6821Z" fill="#A593E0"/>
</svg>
