<svg width="30" height="30" viewBox="0 0 30 30" fill="none" xmlns="http://www.w3.org/2000/svg">
<path d="M6.74709 15.2964L14.1392 22.6885C14.6144 23.1637 15.3848 23.1637 15.86 22.6885L23.2521 15.2964C24.2238 14.3247 24.7697 13.0067 24.7697 11.6326C24.7697 8.77096 22.4499 6.45117 19.5883 6.45117C18.2141 6.45117 16.8962 6.99707 15.9245 7.96877L15.0572 8.83612C15.0254 8.86792 14.9738 8.86792 14.942 8.83612L14.0747 7.96877C13.103 6.99707 11.7851 6.45117 10.4109 6.45117C7.54928 6.45117 5.22949 8.77096 5.22949 11.6326C5.22949 13.0067 5.77539 14.3247 6.74709 15.2964Z" fill="white" stroke="#EF5DA8" stroke-width="2"/>
</svg>
