<svg width="17" height="17" viewBox="0 0 17 17" fill="none" xmlns="http://www.w3.org/2000/svg">
<path d="M8.50033 14.875V14.875C8.50033 13.7014 7.54893 12.75 6.37532 12.75H2.59755C1.94554 12.75 1.41699 12.2214 1.41699 11.5694V3.30556C1.41699 2.65355 1.94555 2.125 2.59755 2.125H5.66699C7.2318 2.125 8.50033 3.39353 8.50033 4.95833V4.95833" stroke="#5D5FEF" stroke-width="1.5" stroke-linecap="round"/>
<path d="M8.49967 14.875V14.875C8.49967 13.7014 9.45107 12.75 10.6247 12.75H14.4025C15.0545 12.75 15.583 12.2214 15.583 11.5694V3.30556C15.583 2.65355 15.0545 2.125 14.4025 2.125H11.333C9.7682 2.125 8.49967 3.39353 8.49967 4.95833V4.95833" stroke="#5D5FEF" stroke-width="1.5" stroke-linecap="round"/>
<path d="M8.5 2.83337V14.875" stroke="#5D5FEF" stroke-width="1.5"/>
</svg>
