<svg width="17" height="17" viewBox="0 0 17 17" fill="none" xmlns="http://www.w3.org/2000/svg">
<path d="M8.49984 14.875V14.875C8.49984 13.7014 7.54844 12.75 6.37484 12.75H2.59706C1.94506 12.75 1.4165 12.2214 1.4165 11.5694V3.30556C1.4165 2.65355 1.94506 2.125 2.59706 2.125H5.6665C7.23131 2.125 8.49984 3.39353 8.49984 4.95833V4.95833" stroke="#5D5FEF" stroke-width="1.5" stroke-linecap="round"/>
<path d="M8.50016 14.875V14.875C8.50016 13.7014 9.45156 12.75 10.6252 12.75H14.4029C15.0549 12.75 15.5835 12.2214 15.5835 11.5694V3.30556C15.5835 2.65355 15.0549 2.125 14.4029 2.125H11.3335C9.76869 2.125 8.50016 3.39353 8.50016 4.95833V4.95833" stroke="#5D5FEF" stroke-width="1.5" stroke-linecap="round"/>
<path d="M8.5 2.83337V14.875" stroke="#5D5FEF" stroke-width="1.5"/>
</svg>
