<svg width="30" height="30" viewBox="0 0 30 30" fill="none" xmlns="http://www.w3.org/2000/svg">
<path d="M17.4235 12.0805L16.9304 12.1635L17.0529 12.8914L17.6834 12.5077L17.4235 12.0805ZM23.5 15.5H23V16H23.5V15.5ZM6.50308 13.1859L6.64958 13.6639L7.01551 13.5518L7.00281 13.1693L6.50308 13.1859ZM17.9166 11.9976C17.4392 9.16097 14.9724 7 12 7V8C14.4761 8 16.5327 9.80039 16.9304 12.1635L17.9166 11.9976ZM19.5 11C18.6454 11 17.845 11.2387 17.1636 11.6534L17.6834 12.5077C18.2126 12.1856 18.8339 12 19.5 12V11ZM24 15.5C24 13.0147 21.9853 11 19.5 11V12C21.433 12 23 13.567 23 15.5H24ZM23.5 16C24.8807 16 26 17.1193 26 18.5H27C27 16.567 25.433 15 23.5 15V16ZM26 18.5C26 19.8807 24.8807 21 23.5 21V22C25.433 22 27 20.433 27 18.5H26ZM7.75 22H23.5V21H7.75V22ZM3 17.25C3 19.8734 5.12665 22 7.75 22V21C5.67893 21 4 19.3211 4 17.25H3ZM6.35659 12.7078C4.41368 13.3032 3 15.1108 3 17.25H4C4 15.5625 5.11497 14.1342 6.64958 13.6639L6.35659 12.7078ZM6 13C6 13.0677 6.00112 13.1352 6.00336 13.2024L7.00281 13.1693C7.00094 13.1131 7 13.0567 7 13H6ZM12 7C8.68629 7 6 9.68629 6 13H7C7 10.2386 9.23858 8 12 8V7Z" fill="black"/>
</svg>
