<svg width="20" height="20" viewBox="0 0 20 20" fill="none" xmlns="http://www.w3.org/2000/svg">
<g opacity="0.6">
<path d="M17.5543 9.63334C17.4376 9.46667 14.7376 5.5 10.0043 5.5C5.27096 5.5 2.57096 9.46667 2.4543 9.63334C2.3043 9.85001 2.3043 10.15 2.4543 10.3833C2.57096 10.55 5.27096 14.5167 10.0043 14.5167C14.7376 14.5167 17.4376 10.55 17.5543 10.3833C17.7043 10.15 17.7043 9.85001 17.5543 9.63334ZM10.0043 13.1667C6.78763 13.1667 4.58763 10.9 3.83763 10C4.58763 9.08333 6.77096 6.83333 10.0043 6.83333C13.221 6.83333 15.421 9.1 16.171 10C15.421 10.9167 13.221 13.1667 10.0043 13.1667ZM10.3876 7.26668C9.6543 7.16668 8.93763 7.35001 8.33763 7.80001C7.12096 8.71667 6.87096 10.45 7.78763 11.6667C8.23763 12.2667 8.87096 12.6333 9.6043 12.75C9.73763 12.7667 9.87096 12.7833 9.98763 12.7833C10.5876 12.7833 11.1543 12.5833 11.6376 12.2333C12.8543 11.3166 13.1043 9.58332 12.1876 8.36666C11.771 7.74999 11.121 7.36668 10.3876 7.26668ZM11.0543 11.4167C10.6876 11.7 10.221 11.8167 9.7543 11.75C9.28763 11.6833 8.87096 11.4333 8.58763 11.0666C8.0043 10.2833 8.1543 9.18333 8.93763 8.58333C9.3043 8.3 9.77096 8.18333 10.2376 8.25C10.7043 8.31667 11.121 8.56668 11.4043 8.93335C11.9876 9.71668 11.8376 10.8333 11.0543 11.4167ZM10.9876 9C11.121 9.11667 11.1876 9.30001 11.1876 9.46667C11.1876 9.63334 11.121 9.81668 10.9876 9.93335C10.871 10.05 10.6876 10.1333 10.521 10.1333C10.3376 10.1333 10.171 10.0667 10.0543 9.93335C9.92096 9.80002 9.8543 9.63334 9.8543 9.46667C9.8543 9.28334 9.92096 9.11667 10.0543 9C10.171 8.86667 10.3543 8.80001 10.521 8.80001C10.7043 8.81667 10.871 8.88333 10.9876 9Z" fill="black"/>
</g>
</svg>
