<svg width="50" height="22" viewBox="0 0 50 22" fill="none" xmlns="http://www.w3.org/2000/svg">
<rect x="7" y="3" width="43" height="15" rx="7.5" fill="#00FF47"/>
<circle cx="10.5" cy="10.5" r="10.5" fill="#6E48EB"/>
<path d="M10.6601 16.0009C9.7385 16.001 8.83753 15.7277 8.07119 15.2157C7.30484 14.7037 6.70752 13.976 6.35479 13.1245C6.00205 12.273 5.90974 11.336 6.08951 10.4321C6.26928 9.52816 6.71306 8.69785 7.36475 8.04613C8.01643 7.39441 8.84674 6.95051 9.75067 6.77069C10.6546 6.59087 11.5916 6.68322 12.4431 7.0359C13.2946 7.38859 14.0223 7.98588 14.5344 8.7522C15.0464 9.51852 15.3197 10.4194 15.3197 11.3411C15.3184 12.5765 14.8271 13.761 13.9535 14.6346C13.08 15.5082 11.8956 15.9995 10.6601 16.0009ZM10.6601 7.78132C9.95607 7.78126 9.26779 7.98991 8.68235 8.38104C8.09691 8.77216 7.64059 9.32816 7.37112 9.97862C7.10164 10.6291 7.0311 11.3448 7.16843 12.0353C7.30575 12.7259 7.64477 13.3602 8.14261 13.8581C8.64044 14.356 9.27474 14.6951 9.96528 14.8325C10.6558 14.9699 11.3716 14.8993 12.0221 14.6299C12.6726 14.3604 13.2285 13.9042 13.6197 13.3188C14.0109 12.7334 14.2197 12.0452 14.2197 11.3411C14.2186 10.3973 13.8433 9.49248 13.176 8.82512C12.5087 8.15775 11.6039 7.78241 10.6601 7.78132Z" fill="white"/>
<path d="M11.9325 13.0371C11.7966 13.0373 11.6655 12.9869 11.5648 12.8957L10.2914 11.7497C10.2342 11.6981 10.1883 11.6352 10.157 11.5648C10.1256 11.4943 10.1094 11.4181 10.1094 11.341V9.02488C10.1094 8.87901 10.1673 8.73901 10.2705 8.63586C10.3736 8.53271 10.5135 8.47485 10.6594 8.47485C10.8053 8.47485 10.9452 8.53271 11.0483 8.63586C11.1515 8.73901 11.2094 8.87901 11.2094 9.02488V11.096L12.3007 12.0784C12.3834 12.1528 12.4415 12.2506 12.4674 12.3588C12.4934 12.467 12.4859 12.5804 12.446 12.6843C12.4061 12.7881 12.3357 12.8774 12.244 12.9404C12.1523 13.0034 12.0437 13.0371 11.9325 13.0371Z" fill="white"/>
<path d="M12.428 6.10006H8.89183C8.74595 6.10006 8.60605 6.04207 8.5029 5.93892C8.39975 5.83577 8.3418 5.69591 8.3418 5.55003C8.3418 5.40415 8.39975 5.26429 8.5029 5.16114C8.60605 5.05799 8.74595 5 8.89183 5H12.428C12.5739 5 12.7138 5.05799 12.8169 5.16114C12.9201 5.26429 12.978 5.40415 12.978 5.55003C12.978 5.69591 12.9201 5.83577 12.8169 5.93892C12.7138 6.04207 12.5739 6.10006 12.428 6.10006Z" fill="white"/>
<path d="M10.6604 7.78129C10.5145 7.78129 10.3746 7.7233 10.2715 7.62014C10.1683 7.51699 10.1104 7.37713 10.1104 7.23126V5.55028C10.1104 5.4044 10.1683 5.26454 10.2715 5.16139C10.3746 5.05824 10.5145 5.00024 10.6604 5.00024C10.8063 5.00024 10.9462 5.05824 11.0493 5.16139C11.1525 5.26454 11.2104 5.4044 11.2104 5.55028V7.23126C11.2104 7.37713 11.1525 7.51699 11.0493 7.62014C10.9462 7.7233 10.8063 7.78129 10.6604 7.78129Z" fill="white"/>
<path d="M24.7628 11.81V12.87H33.1528V11.81H24.7628ZM28.2628 12.49V15.89H29.5828V12.49H28.2628ZM25.7328 7.08V10.82H32.1528V7.08H25.7328ZM30.8428 8.13V9.77H27.0428V8.13H30.8428ZM36.072 12.03V14.21H37.372V12.03H36.072ZM39.002 12.02V14.21H40.302V12.02H39.002ZM33.952 13.79V14.87H42.332V13.79H33.952ZM34.892 7.23V8.28H40.072V9.26H34.912V11.87H36.232V10.3H41.392V7.23H34.892ZM34.912 11.31V12.38H41.602V11.31H34.912Z" fill="#00A739"/>
</svg>
