<svg width="15" height="13" viewBox="0 0 15 13" fill="none" xmlns="http://www.w3.org/2000/svg">
<path d="M2.71321 6.67183L7.00064 10.9593C7.27625 11.2349 7.7231 11.2349 7.99871 10.9593L12.2861 6.67183C12.8497 6.10824 13.1663 5.34386 13.1663 4.54683C13.1663 2.8871 11.8209 1.54163 10.1611 1.54163C9.36411 1.54163 8.59972 1.85825 8.03614 2.42183L7.53307 2.9249C7.51463 2.94334 7.48472 2.94334 7.46628 2.9249L6.96321 2.42183C6.39963 1.85824 5.63524 1.54163 4.83821 1.54163C3.17848 1.54163 1.83301 2.8871 1.83301 4.54683C1.83301 5.34386 2.14963 6.10825 2.71321 6.67183Z" stroke="#EF5DA8" stroke-width="2"/>
</svg>
