<svg width="24" height="24" viewBox="0 0 24 24" fill="none" xmlns="http://www.w3.org/2000/svg">
<path d="M13.8496 3.40418L13.85 3.40446L19.6099 7.43436C20.0387 7.73455 20.459 8.2387 20.7726 8.83953C21.0863 9.44035 21.26 10.0738 21.26 10.5999V17.3799C21.26 19.5157 19.5258 21.2499 17.39 21.2499H6.60999C4.47631 21.2499 2.73999 19.5078 2.73999 17.3699V10.4699C2.73999 9.98328 2.89682 9.38217 3.18285 8.80123C3.46868 8.22071 3.85159 7.72526 4.24126 7.42131L4.24143 7.42119L9.24936 3.5128C9.24969 3.51254 9.25003 3.51228 9.25036 3.51202C10.5006 2.54409 12.5492 2.49306 13.8496 3.40418ZM12 19.4999C12.8242 19.4999 13.5 18.8242 13.5 17.9999V14.9999C13.5 14.1757 12.8242 13.4999 12 13.4999C11.1758 13.4999 10.5 14.1757 10.5 14.9999V17.9999C10.5 18.8242 11.1758 19.4999 12 19.4999Z" stroke="#6E48EB" stroke-width="1.5"/>
</svg>
