<svg width="16" height="16" viewBox="0 0 16 16" fill="none" xmlns="http://www.w3.org/2000/svg">
<g opacity="0.6">
<path d="M13.9999 4.66672H5.33325C4.93325 4.66672 4.66659 4.40006 4.66659 4.00006C4.66659 3.60006 4.93325 3.33339 5.33325 3.33339H13.9999C14.3999 3.33339 14.6666 3.60006 14.6666 4.00006C14.6666 4.40006 14.3999 4.66672 13.9999 4.66672Z" fill="black"/>
<path d="M13.9999 8.66672H5.33325C4.93325 8.66672 4.66659 8.40006 4.66659 8.00006C4.66659 7.60006 4.93325 7.33339 5.33325 7.33339H13.9999C14.3999 7.33339 14.6666 7.60006 14.6666 8.00006C14.6666 8.40006 14.3999 8.66672 13.9999 8.66672Z" fill="black"/>
<path d="M13.9999 12.6667H5.33325C4.93325 12.6667 4.66659 12.4001 4.66659 12.0001C4.66659 11.6001 4.93325 11.3334 5.33325 11.3334H13.9999C14.3999 11.3334 14.6666 11.6001 14.6666 12.0001C14.6666 12.4001 14.3999 12.6667 13.9999 12.6667Z" fill="black"/>
<path d="M1.99992 4.66672C1.93325 4.66672 1.93325 4.66672 1.86659 4.66672C1.79992 4.66672 1.79992 4.66672 1.73325 4.60006C1.66659 4.60006 1.66659 4.53339 1.59992 4.53339C1.53325 4.53339 1.53325 4.46672 1.53325 4.46672C1.46659 4.40006 1.39992 4.33339 1.39992 4.26672C1.33325 4.20006 1.33325 4.06672 1.33325 4.00006C1.33325 3.93339 1.33325 3.80006 1.39992 3.73339C1.46659 3.66672 1.46659 3.60006 1.53325 3.53339C1.73325 3.33339 1.99992 3.26672 2.26659 3.40006C2.33325 3.46672 2.39992 3.46672 2.46659 3.53339C2.59992 3.66672 2.66659 3.80006 2.66659 4.00006C2.66659 4.20006 2.59992 4.33339 2.46659 4.46672C2.33325 4.60006 2.19992 4.66672 1.99992 4.66672Z" fill="black"/>
<path d="M1.99992 8.66672C1.79992 8.66672 1.66659 8.60006 1.53325 8.46672C1.39992 8.33339 1.33325 8.20006 1.33325 8.00006C1.33325 7.93339 1.33325 7.93339 1.33325 7.86672C1.33325 7.80006 1.33325 7.80006 1.39992 7.73339C1.39992 7.66672 1.46659 7.66672 1.46659 7.60006C1.46659 7.53339 1.53325 7.53339 1.53325 7.53339C1.59992 7.46672 1.66659 7.40006 1.73325 7.40006C1.99992 7.26672 2.26659 7.33339 2.46659 7.53339L2.53325 7.60006C2.53325 7.66672 2.59992 7.66672 2.59992 7.73339C2.59992 7.80006 2.59992 7.80006 2.66659 7.86672C2.66659 7.93339 2.66659 7.93339 2.66659 8.00006C2.66659 8.20006 2.59992 8.33339 2.46659 8.46672C2.33325 8.60006 2.19992 8.66672 1.99992 8.66672Z" fill="black"/>
<path d="M1.99992 12.6667C1.79992 12.6667 1.66659 12.6001 1.53325 12.4667C1.39992 12.3334 1.33325 12.2001 1.33325 12.0001C1.33325 11.9334 1.33325 11.8001 1.39992 11.7334C1.46659 11.6667 1.46659 11.6001 1.53325 11.5334C1.79992 11.2667 2.19992 11.2667 2.46659 11.5334C2.59992 11.6667 2.66659 11.8001 2.66659 12.0001C2.66659 12.2001 2.59992 12.3334 2.46659 12.4667C2.33325 12.6001 2.19992 12.6667 1.99992 12.6667Z" fill="black"/>
</g>
</svg>
