<svg width="37" height="10" viewBox="0 0 37 10" fill="none" xmlns="http://www.w3.org/2000/svg">
<path d="M0.758523 9V0.272727H2.60369V7.47869H6.34517V9H0.758523ZM15.2472 4.63636C15.2472 5.58807 15.0668 6.39773 14.706 7.06534C14.348 7.73295 13.8594 8.2429 13.2401 8.59517C12.6236 8.9446 11.9304 9.11932 11.1605 9.11932C10.3849 9.11932 9.68892 8.94318 9.07244 8.59091C8.45597 8.23864 7.96875 7.72869 7.6108 7.06108C7.25284 6.39347 7.07386 5.58523 7.07386 4.63636C7.07386 3.68466 7.25284 2.875 7.6108 2.20739C7.96875 1.53977 8.45597 1.03125 9.07244 0.681818C9.68892 0.329545 10.3849 0.153409 11.1605 0.153409C11.9304 0.153409 12.6236 0.329545 13.2401 0.681818C13.8594 1.03125 14.348 1.53977 14.706 2.20739C15.0668 2.875 15.2472 3.68466 15.2472 4.63636ZM13.3764 4.63636C13.3764 4.01989 13.2841 3.5 13.0994 3.0767C12.9176 2.65341 12.6605 2.33239 12.3281 2.11364C11.9957 1.89489 11.6065 1.78551 11.1605 1.78551C10.7145 1.78551 10.3253 1.89489 9.9929 2.11364C9.66051 2.33239 9.40199 2.65341 9.21733 3.0767C9.03551 3.5 8.9446 4.01989 8.9446 4.63636C8.9446 5.25284 9.03551 5.77273 9.21733 6.19602C9.40199 6.61932 9.66051 6.94034 9.9929 7.15909C10.3253 7.37784 10.7145 7.48722 11.1605 7.48722C11.6065 7.48722 11.9957 7.37784 12.3281 7.15909C12.6605 6.94034 12.9176 6.61932 13.0994 6.19602C13.2841 5.77273 13.3764 5.25284 13.3764 4.63636ZM22.4009 3.09375C22.3413 2.88636 22.2575 2.70312 22.1495 2.54403C22.0415 2.3821 21.9094 2.24574 21.7532 2.13494C21.5998 2.02131 21.4237 1.93466 21.2248 1.875C21.0288 1.81534 20.8114 1.78551 20.5728 1.78551C20.1268 1.78551 19.7347 1.89631 19.3967 2.1179C19.0614 2.33949 18.8001 2.66193 18.6126 3.08523C18.4251 3.50568 18.3313 4.01989 18.3313 4.62784C18.3313 5.2358 18.4237 5.75284 18.6083 6.17898C18.793 6.60511 19.0543 6.9304 19.3924 7.15483C19.7305 7.37642 20.1296 7.48722 20.5898 7.48722C21.0075 7.48722 21.364 7.41335 21.6594 7.26562C21.9577 7.11506 22.185 6.90341 22.3413 6.63068C22.5004 6.35795 22.5799 6.03551 22.5799 5.66335L22.9549 5.71875H20.7049V4.32955H24.3569V5.42898C24.3569 6.19602 24.195 6.85511 23.8711 7.40625C23.5472 7.95455 23.1012 8.37784 22.533 8.67614C21.9648 8.97159 21.3143 9.11932 20.5813 9.11932C19.7631 9.11932 19.0444 8.93892 18.4251 8.57812C17.8058 8.21449 17.3228 7.69886 16.9762 7.03125C16.6325 6.3608 16.4606 5.56534 16.4606 4.64489C16.4606 3.9375 16.5629 3.30682 16.7674 2.75284C16.9748 2.19602 17.2646 1.72443 17.6367 1.33807C18.0089 0.951704 18.4421 0.65767 18.9364 0.455966C19.4308 0.254261 19.9663 0.153409 20.543 0.153409C21.0373 0.153409 21.4975 0.225852 21.9237 0.370739C22.3498 0.512784 22.7276 0.714489 23.0572 0.975852C23.3896 1.23722 23.6609 1.5483 23.8711 1.90909C24.0813 2.26705 24.2163 2.66193 24.2759 3.09375H22.4009ZM27.5881 0.272727V9H25.7429V0.272727H27.5881ZM36.4059 0.272727V9H34.8121L31.0153 3.5071H30.9513V9H29.1062V0.272727H30.7255L34.4925 5.76136H34.5692V0.272727H36.4059Z" fill="black"/>
</svg>
