<svg width="121" height="34" viewBox="0 0 121 34" fill="none" xmlns="http://www.w3.org/2000/svg">
<path d="M1 32.5C1 32.2239 1.22386 32 1.5 32H54.5C54.7761 32 55 32.2239 55 32.5C55 32.7761 54.7761 33 54.5 33H1.5C1.22386 33 1 32.7761 1 32.5Z" fill="#BCBEC0"/>
<path d="M1 29V12.2H7.168C8.512 12.2 9.616 12.432 10.48 12.896C11.36 13.344 12.016 13.96 12.448 14.744C12.88 15.512 13.096 16.368 13.096 17.312C13.096 18.336 12.824 19.272 12.28 20.12C11.752 20.968 10.92 21.584 9.784 21.968L13.264 29H9.736L6.616 22.376H4.072V29H1ZM4.072 20.12H6.976C8 20.12 8.752 19.872 9.232 19.376C9.712 18.88 9.952 18.224 9.952 17.408C9.952 16.608 9.712 15.968 9.232 15.488C8.768 15.008 8.008 14.768 6.952 14.768H4.072V20.12Z" fill="#6E48EB"/>
<path d="M20.7466 29.288C19.5466 29.288 18.4826 29.032 17.5546 28.52C16.6266 28.008 15.8986 27.288 15.3706 26.36C14.8426 25.432 14.5786 24.36 14.5786 23.144C14.5786 21.912 14.8346 20.816 15.3466 19.856C15.8746 18.896 16.5946 18.152 17.5066 17.624C18.4346 17.08 19.5226 16.808 20.7706 16.808C21.9386 16.808 22.9706 17.064 23.8666 17.576C24.7626 18.088 25.4586 18.792 25.9546 19.688C26.4666 20.568 26.7226 21.552 26.7226 22.64C26.7226 22.816 26.7146 23 26.6986 23.192C26.6986 23.384 26.6906 23.584 26.6746 23.792H17.6266C17.6906 24.72 18.0106 25.448 18.5866 25.976C19.1786 26.504 19.8906 26.768 20.7226 26.768C21.3466 26.768 21.8666 26.632 22.2826 26.36C22.7146 26.072 23.0346 25.704 23.2426 25.256H26.3626C26.1386 26.008 25.7626 26.696 25.2346 27.32C24.7226 27.928 24.0826 28.408 23.3146 28.76C22.5626 29.112 21.7066 29.288 20.7466 29.288ZM20.7706 19.304C20.0186 19.304 19.3546 19.52 18.7786 19.952C18.2026 20.368 17.8346 21.008 17.6746 21.872H23.6026C23.5546 21.088 23.2666 20.464 22.7386 20C22.2106 19.536 21.5546 19.304 20.7706 19.304Z" fill="#6E48EB"/>
<path d="M33.2183 29.288C32.1943 29.288 31.3543 29.128 30.6983 28.808C30.0423 28.472 29.5543 28.032 29.2343 27.488C28.9143 26.944 28.7543 26.344 28.7543 25.688C28.7543 24.584 29.1863 23.688 30.0503 23C30.9143 22.312 32.2103 21.968 33.9383 21.968H36.9623V21.68C36.9623 20.864 36.7303 20.264 36.2663 19.88C35.8023 19.496 35.2263 19.304 34.5383 19.304C33.9143 19.304 33.3703 19.456 32.9063 19.76C32.4423 20.048 32.1543 20.48 32.0423 21.056H29.0423C29.1223 20.192 29.4103 19.44 29.9063 18.8C30.4183 18.16 31.0743 17.672 31.8743 17.336C32.6743 16.984 33.5703 16.808 34.5623 16.808C36.2583 16.808 37.5943 17.232 38.5703 18.08C39.5463 18.928 40.0343 20.128 40.0343 21.68V29H37.4183L37.1303 27.08C36.7783 27.72 36.2823 28.248 35.6423 28.664C35.0183 29.08 34.2103 29.288 33.2183 29.288ZM33.9143 26.888C34.7943 26.888 35.4743 26.6 35.9543 26.024C36.4503 25.448 36.7623 24.736 36.8903 23.888H34.2743C33.4583 23.888 32.8743 24.04 32.5223 24.344C32.1703 24.632 31.9943 24.992 31.9943 25.424C31.9943 25.888 32.1703 26.248 32.5223 26.504C32.8743 26.76 33.3383 26.888 33.9143 26.888Z" fill="#6E48EB"/>
<path d="M48.2459 29.288C47.1259 29.288 46.1259 29.016 45.2459 28.472C44.3659 27.928 43.6699 27.184 43.1579 26.24C42.6459 25.296 42.3899 24.224 42.3899 23.024C42.3899 21.824 42.6459 20.76 43.1579 19.832C43.6699 18.888 44.3659 18.152 45.2459 17.624C46.1259 17.08 47.1259 16.808 48.2459 16.808C49.1419 16.808 49.9259 16.976 50.5979 17.312C51.2699 17.648 51.8139 18.12 52.2299 18.728V11.72H55.3019V29H52.5659L52.2299 27.296C51.8459 27.824 51.3339 28.288 50.6939 28.688C50.0699 29.088 49.2539 29.288 48.2459 29.288ZM48.8939 26.6C49.8859 26.6 50.6939 26.272 51.3179 25.616C51.9579 24.944 52.2779 24.088 52.2779 23.048C52.2779 22.008 51.9579 21.16 51.3179 20.504C50.6939 19.832 49.8859 19.496 48.8939 19.496C47.9179 19.496 47.1099 19.824 46.4699 20.48C45.8299 21.136 45.5099 21.984 45.5099 23.024C45.5099 24.064 45.8299 24.92 46.4699 25.592C47.1099 26.264 47.9179 26.6 48.8939 26.6Z" fill="#6E48EB"/>
<path d="M58.3101 29V12.2H61.9581L67.3101 22.856L72.5901 12.2H76.2381V29H73.1661V17.408L68.4861 26.6H66.0621L61.3821 17.408V29H58.3101Z" fill="#6E48EB"/>
<path d="M85.0176 29.288C83.8176 29.288 82.7536 29.032 81.8256 28.52C80.8976 28.008 80.1696 27.288 79.6416 26.36C79.1136 25.432 78.8496 24.36 78.8496 23.144C78.8496 21.912 79.1056 20.816 79.6176 19.856C80.1456 18.896 80.8656 18.152 81.7776 17.624C82.7056 17.08 83.7936 16.808 85.0416 16.808C86.2096 16.808 87.2416 17.064 88.1376 17.576C89.0336 18.088 89.7296 18.792 90.2256 19.688C90.7376 20.568 90.9936 21.552 90.9936 22.64C90.9936 22.816 90.9856 23 90.9696 23.192C90.9696 23.384 90.9616 23.584 90.9456 23.792H81.8976C81.9616 24.72 82.2816 25.448 82.8576 25.976C83.4496 26.504 84.1616 26.768 84.9936 26.768C85.6176 26.768 86.1376 26.632 86.5536 26.36C86.9856 26.072 87.3056 25.704 87.5136 25.256H90.6336C90.4096 26.008 90.0336 26.696 89.5056 27.32C88.9936 27.928 88.3536 28.408 87.5856 28.76C86.8336 29.112 85.9776 29.288 85.0176 29.288ZM85.0416 19.304C84.2896 19.304 83.6256 19.52 83.0496 19.952C82.4736 20.368 82.1056 21.008 81.9456 21.872H87.8736C87.8256 21.088 87.5376 20.464 87.0096 20C86.4816 19.536 85.8256 19.304 85.0416 19.304Z" fill="#6E48EB"/>
<path fill-rule="evenodd" clip-rule="evenodd" d="M51.9799 11.47H55.5519V29.25H52.3604L52.0873 27.8653C51.7375 28.2489 51.3169 28.5933 50.8277 28.8992C50.1515 29.3322 49.2844 29.538 48.2459 29.538C47.0834 29.538 46.0372 29.2551 45.1144 28.6846C44.1959 28.1168 43.4701 27.34 42.9381 26.3592C42.404 25.3744 42.1399 24.2606 42.1399 23.024C42.1399 21.7877 42.4039 20.6813 42.9386 19.7118C43.4706 18.7314 44.1967 17.9623 45.1158 17.4104C46.0383 16.8406 47.084 16.558 48.2459 16.558C49.1733 16.558 49.9969 16.732 50.7097 17.0884C51.1957 17.3314 51.6195 17.6426 51.9799 18.0217V11.47ZM52.4799 11.97V19.5361L52.0235 18.8691C51.632 18.2969 51.1209 17.853 50.4861 17.5356C49.8549 17.22 49.1105 17.058 48.2459 17.058C47.1683 17.058 46.2146 17.319 45.3773 17.8366L45.3745 17.8383C44.5347 18.3422 43.8693 19.0446 43.3776 19.9512L43.3768 19.9527C42.8877 20.8391 42.6399 21.8605 42.6399 23.024C42.6399 24.1873 42.8877 25.2175 43.3776 26.1208C43.8697 27.028 44.5359 27.7391 45.3773 28.2593C46.2146 28.7769 47.1683 29.038 48.2459 29.038C49.2227 29.038 49.9873 28.844 50.559 28.4775L50.5614 28.476C51.1784 28.0903 51.6652 27.6473 52.0277 27.1489L52.3644 26.686L52.7714 28.75H55.0519V11.97H52.4799ZM0.75 11.95H7.168C8.53751 11.95 9.68491 12.1859 10.5959 12.6744C11.5141 13.1424 12.2082 13.7912 12.6665 14.6224C13.1206 15.4302 13.346 16.3286 13.346 17.312C13.346 18.3824 13.061 19.3649 12.4913 20.2535C11.9705 21.0893 11.1776 21.7047 10.1322 22.1079L13.6667 29.25H9.57741L6.45741 22.626H4.322V29.25H0.75V11.95ZM1.25 12.45V28.75H3.822V22.126H6.77459L9.89459 28.75H12.8613L9.43316 21.8227L9.70394 21.7311C10.7965 21.3618 11.5762 20.7773 12.0678 19.9878L12.0696 19.985C12.5873 19.1779 12.846 18.2889 12.846 17.312C12.846 16.4077 12.6396 15.5945 12.2301 14.8665L12.229 14.8646C11.8237 14.129 11.2068 13.5465 10.3666 13.1188L10.3617 13.1163C9.54502 12.6777 8.48528 12.45 7.168 12.45H1.25ZM58.0601 11.95H62.1123L67.3086 22.2959L72.435 11.95H76.4881V29.25H72.9161V18.45L68.6394 26.85H65.9089L61.6321 18.45V29.25H58.0601V11.95ZM58.5601 12.45V28.75H61.1321V17.408L61.6049 17.2945L66.2154 26.35H68.3329L72.9433 17.2945L73.4161 17.408V28.75H75.9881V12.45H72.7452L67.3116 23.416L61.8039 12.45H58.5601ZM3.822 14.518H6.952C8.03644 14.518 8.87782 14.763 9.41026 15.3127C9.94444 15.8477 10.202 16.5552 10.202 17.408C10.202 18.2762 9.94487 18.9988 9.41165 19.5498C8.86586 20.1138 8.03506 20.37 6.976 20.37H3.822V14.518ZM4.322 15.018V19.87H6.976C7.96494 19.87 8.63814 19.6301 9.05235 19.2021C9.47914 18.7611 9.702 18.1717 9.702 17.408C9.702 16.6615 9.48004 16.0896 9.05522 15.6647L9.05223 15.6618C8.65658 15.2525 7.97855 15.018 6.952 15.018H4.322ZM20.7706 17.058C19.5598 17.058 18.5169 17.3215 17.633 17.8396L17.6318 17.8403C16.7613 18.3443 16.0733 19.054 15.5664 19.975C15.0766 20.8939 14.8286 21.9481 14.8286 23.144C14.8286 24.3227 15.0841 25.351 15.5879 26.2363C16.0932 27.1246 16.788 27.8115 17.6753 28.3011C18.5617 28.7901 19.5831 29.038 20.7466 29.038C21.6756 29.038 22.4946 28.8678 23.2086 28.5335L23.2104 28.5327C23.947 28.1951 24.5566 27.7369 25.0433 27.1589C25.4734 26.6507 25.7973 26.0996 26.0161 25.506H23.3972C23.1696 25.9327 22.8427 26.287 22.4212 26.568L22.4194 26.5692C21.9534 26.8739 21.3828 27.018 20.7226 27.018C19.8325 27.018 19.0604 26.7335 18.4202 26.1625L18.4176 26.1603C17.7856 25.5809 17.4447 24.7882 17.3772 23.8092L17.3587 23.542H26.4398C26.4457 23.4221 26.4486 23.3054 26.4486 23.192V23.1816L26.4494 23.1712C26.4649 22.9855 26.4726 22.8084 26.4726 22.64C26.4726 21.593 26.2267 20.6529 25.7385 19.8137L25.7358 19.8091C25.2621 18.9535 24.5991 18.2825 23.7425 17.793C22.8891 17.3053 21.9009 17.058 20.7706 17.058ZM17.3807 17.408C18.3527 16.8383 19.4856 16.558 20.7706 16.558C21.9762 16.558 23.0521 16.8226 23.9906 17.3589C24.9253 17.893 25.6537 18.6293 26.172 19.5645C26.7068 20.4848 26.9726 21.5119 26.9726 22.64C26.9726 22.8203 26.9645 23.0078 26.9486 23.2024C26.9483 23.3981 26.94 23.601 26.9238 23.8111L26.9061 24.042H17.9026C18.0011 24.7873 18.2892 25.3637 18.7543 25.7906C19.2978 26.2748 19.9493 26.518 20.7226 26.518C21.3099 26.518 21.7789 26.3903 22.1448 26.1513C22.5401 25.8876 22.8283 25.5545 23.0158 25.1507L23.083 25.006H26.6979L26.6022 25.3273C26.3679 26.1138 25.9748 26.8322 25.4254 27.4815C24.8884 28.119 24.2185 28.6205 23.4197 28.9868C23.4194 28.9869 23.4191 28.9871 23.4187 28.9872L23.3146 28.76L23.4197 28.9868C23.4194 28.9869 23.42 28.9867 23.4197 28.9868C22.6299 29.3563 21.7371 29.538 20.7466 29.538C19.51 29.538 18.4034 29.2738 17.4338 28.7389C16.4651 28.2044 15.7039 27.4513 15.1533 26.4836C14.601 25.5129 14.3286 24.3972 14.3286 23.144C14.3286 21.8764 14.5922 20.7391 15.126 19.7383L15.1275 19.7355C15.6764 18.7374 16.428 17.9597 17.3807 17.408ZM34.5623 17.058C33.6003 17.058 32.7393 17.2285 31.975 17.5648L31.9711 17.5665C31.2079 17.887 30.5869 18.3499 30.1027 18.9547C29.6911 19.4864 29.4309 20.1017 29.3244 20.806H31.8443C31.9936 20.2656 32.3026 19.8413 32.7719 19.5492C33.281 19.2164 33.873 19.054 34.5383 19.054C35.2757 19.054 35.9106 19.261 36.4257 19.6874C36.9656 20.1342 37.2123 20.8175 37.2123 21.68V22.218H33.9383C32.2368 22.218 31.0069 22.5578 30.206 23.1955C29.4016 23.8361 29.0043 24.6602 29.0043 25.688C29.0043 26.3012 29.1533 26.8572 29.4498 27.3612C29.7416 27.8573 30.1903 28.2665 30.8102 28.5844C31.4208 28.8817 32.2192 29.038 33.2183 29.038C34.1766 29.038 34.932 28.837 35.5036 28.456L35.5061 28.4544C36.1132 28.0598 36.58 27.5618 36.9113 26.9595L37.2678 26.3112L37.6336 28.75H39.7843V21.68C39.7843 20.1845 39.3167 19.0597 38.4063 18.2687C37.4884 17.4712 36.2172 17.058 34.5623 17.058ZM31.7755 17.1063C32.6108 16.7391 33.5411 16.558 34.5623 16.558C36.2994 16.558 37.7002 16.9928 38.7343 17.8913C39.7759 18.7962 40.2843 20.0715 40.2843 21.68V29.25H37.203L36.9807 27.7678C36.6549 28.1959 36.2541 28.5643 35.7799 28.8727C35.1036 29.3232 34.2434 29.538 33.2183 29.538C32.1707 29.538 31.2897 29.3746 30.5887 29.0327L30.5843 29.0305C29.8933 28.6766 29.3667 28.2061 29.0188 27.6147C28.6753 27.0308 28.5043 26.3867 28.5043 25.688C28.5043 24.5078 28.971 23.5398 29.8946 22.8044C30.8217 22.0661 32.1838 21.718 33.9383 21.718H36.7123V21.68C36.7123 20.9105 36.495 20.3937 36.1069 20.0726C35.6941 19.7309 35.1769 19.554 34.5383 19.554C33.9567 19.554 33.4617 19.695 33.0433 19.9691L33.0382 19.9724C32.6381 20.2208 32.3875 20.5903 32.2877 21.1037L32.2484 21.306H28.7681L28.7934 21.0329C28.8774 20.1251 29.1815 19.3271 29.7087 18.6468L29.7111 18.6438C30.2503 17.9698 30.9403 17.4575 31.7755 17.1063ZM85.0416 17.058C83.8309 17.058 82.7879 17.3215 81.904 17.8396L81.9029 17.8403C81.0323 18.3443 80.3443 19.054 79.8374 19.9751C79.3477 20.894 79.0996 21.9481 79.0996 23.144C79.0996 24.3227 79.3552 25.351 79.8589 26.2363C80.3643 27.1246 81.059 27.8115 81.9464 28.3011C82.8327 28.7901 83.8542 29.038 85.0176 29.038C85.9467 29.038 86.7656 28.8678 87.4796 28.5335L87.4815 28.5327C88.2181 28.1951 88.8277 27.7369 89.3144 27.1589C89.7444 26.6507 90.0684 26.0996 90.2871 25.506H87.6683C87.4406 25.9327 87.1137 26.287 86.6923 26.568L86.6904 26.5692C86.2245 26.8739 85.6538 27.018 84.9936 27.018C84.1035 27.018 83.3314 26.7335 82.6912 26.1625L82.6887 26.1603C82.0566 25.5809 81.7157 24.7882 81.6482 23.8092L81.6298 23.542H90.7109C90.7167 23.4221 90.7196 23.3054 90.7196 23.192V23.1816L90.7205 23.1712C90.736 22.9855 90.7436 22.8084 90.7436 22.64C90.7436 21.593 90.4978 20.6529 90.0095 19.8137L90.0069 19.809C89.5333 18.9534 88.8701 18.2825 88.0136 17.793C87.1601 17.3053 86.172 17.058 85.0416 17.058ZM81.6518 17.408C82.6238 16.8383 83.7567 16.558 85.0416 16.558C86.2473 16.558 87.3231 16.8226 88.2617 17.3589C89.1964 17.893 89.9249 18.6293 90.4431 19.5647C90.9779 20.4849 91.2436 21.5119 91.2436 22.64C91.2436 22.8203 91.2356 23.0078 91.2196 23.2024C91.2193 23.3981 91.2111 23.601 91.1949 23.8111L91.1771 24.042H82.1737C82.2721 24.7873 82.5602 25.3636 83.0252 25.7905C83.5688 26.2748 84.2203 26.518 84.9936 26.518C85.581 26.518 86.05 26.3903 86.416 26.1513C86.8112 25.8875 87.0994 25.5545 87.2869 25.1507L87.3541 25.006H90.9689L90.8732 25.3273C90.639 26.1137 90.2459 26.8321 89.6966 27.4813C89.1597 28.1188 88.4897 28.6204 87.6909 28.9867C86.9011 29.3563 86.0082 29.538 85.0176 29.538C83.7811 29.538 82.6745 29.2738 81.7049 28.7389C80.7362 28.2044 79.9749 27.4513 79.4243 26.4836C78.8721 25.5129 78.5996 24.3972 78.5996 23.144C78.5996 21.8764 78.8633 20.7391 79.397 19.7383L79.3986 19.7355C79.9475 18.7374 80.699 17.9597 81.6518 17.408ZM18.6304 19.7506C19.2512 19.2856 19.9678 19.054 20.7706 19.054C21.6078 19.054 22.3246 19.3034 22.9036 19.8122C23.4877 20.3255 23.8005 21.0148 23.8521 21.8567L23.8683 22.122H17.374L17.4287 21.8264C17.5974 20.9158 17.9916 20.2127 18.6304 19.7506ZM20.7706 19.554C20.0701 19.554 19.4593 19.7539 18.9286 20.152L18.925 20.1547C18.4769 20.4783 18.1597 20.9598 17.9861 21.622H23.326C23.2393 21.0233 22.9863 20.5505 22.5735 20.1878C22.0965 19.7686 21.5013 19.554 20.7706 19.554ZM82.9013 19.7507C83.5222 19.2856 84.2388 19.054 85.0416 19.054C85.8788 19.054 86.5957 19.3034 87.1747 19.8122C87.7588 20.3255 88.0716 21.0148 88.1232 21.8567L88.1394 22.122H81.6451L81.6998 21.8264C81.8684 20.9159 82.2626 20.2128 82.9013 19.7507ZM85.0416 19.554C84.3411 19.554 83.7303 19.7539 83.1996 20.152L83.196 20.1546C82.7479 20.4782 82.4308 20.9598 82.2571 21.622H87.5971C87.5104 21.0233 87.2573 20.5505 86.8446 20.1878C86.3676 19.7686 85.7724 19.554 85.0416 19.554ZM46.2909 20.3054C46.9813 19.5978 47.8554 19.246 48.8939 19.246C49.948 19.246 50.8238 19.6057 51.499 20.3316C52.1893 21.0404 52.5279 21.9534 52.5279 23.048C52.5279 24.1437 52.1887 25.0641 51.499 25.7883C50.823 26.4989 49.9471 26.85 48.8939 26.85C47.8534 26.85 46.9787 26.4887 46.2888 25.7644C45.5991 25.0402 45.2599 24.1198 45.2599 23.024C45.2599 21.9283 45.5991 21.0145 46.2909 20.3054ZM48.8939 19.746C47.9804 19.746 47.2385 20.0502 46.6488 20.6546C46.0606 21.2574 45.7599 22.0397 45.7599 23.024C45.7599 24.0082 46.0607 24.7998 46.6509 25.4196C47.2411 26.0392 47.9823 26.35 48.8939 26.35C49.8247 26.35 50.5647 26.045 51.1367 25.4437C51.727 24.8239 52.0279 24.0322 52.0279 23.048C52.0279 22.0637 51.7271 21.2814 51.1389 20.6786L51.1346 20.6741C50.5621 20.0575 49.8227 19.746 48.8939 19.746ZM32.3615 24.1526C32.7826 23.7906 33.441 23.638 34.2743 23.638H37.1809L37.1375 23.9253C37.0035 24.813 36.6748 25.5698 36.1451 26.1856C35.6092 26.8277 34.8534 27.138 33.9143 27.138C33.3024 27.138 32.7819 27.0019 32.3753 26.7062C31.9537 26.3996 31.7443 25.9618 31.7443 25.424C31.7443 24.9136 31.9566 24.4849 32.3615 24.1526ZM34.2743 24.138C33.4773 24.138 32.9688 24.2887 32.6857 24.5332L32.6807 24.5375C32.3832 24.7809 32.2443 25.0714 32.2443 25.424C32.2443 25.8142 32.3869 26.0964 32.6694 26.3018C32.9667 26.518 33.3742 26.638 33.9143 26.638C34.7344 26.638 35.3382 26.3728 35.7623 25.8639L35.7648 25.8608C36.1704 25.3898 36.4473 24.8179 36.5912 24.138H34.2743Z" fill="#6E48EB"/>
<g clip-path="url(#clip0_1732_1773)">
<path d="M103.929 7.17347L119.239 5.13354L119.241 3.08105L103.929 7.03392V7.17347Z" fill="#BCBEC0"/>
<path d="M120.368 31.5807V11.0434L103.928 8.88428V9.03951L118.706 12.9234L118.691 31.1621L120.368 31.5807Z" fill="#BCBEC0"/>
<path d="M120.368 6.85669L103.929 7.96368V8.12518L120.368 9.06597V6.85669Z" fill="#BCBEC0"/>
<path d="M92.368 17.1866H94.7674V19.6562H92.368V17.1866ZM96.7463 21.9313H99.7763V18.8126H96.7463V21.9313ZM98.9902 12.5517H95.2153V16.4371H98.9902V12.5517ZM102.878 6.94927V9.21343C102.878 9.59758 103.123 9.93783 103.483 10.046L117.375 14.2827L117.359 34.0016L102.931 29.605C101.795 29.2584 101.015 28.1828 101.016 26.9629L101.019 22.7404H104.36V19.5683H108.667V14.2843H103.533V18.8157H101.022L101.032 7.01669C101.032 5.79681 101.813 4.72274 102.951 4.37779L117.387 0V1.90039L103.483 6.11511C103.123 6.2233 102.876 6.56355 102.876 6.94927H102.878ZM106.84 24.1672H104.942V26.1209H106.84V24.1672ZM111.573 17.7213H113.121V16.1282H111.573V17.7213ZM108.949 24.3883H111.648V21.6099H108.949V24.3883Z" fill="#6E48EB"/>
</g>
<defs>
<clipPath id="clip0_1732_1773">
<rect width="28" height="34" fill="white" transform="translate(92.368)"/>
</clipPath>
</defs>
</svg>
