<svg width="24" height="16" viewBox="0 0 24 16" fill="none" xmlns="http://www.w3.org/2000/svg">
<path d="M1 16C0.447716 16 -1.95703e-08 15.5523 -4.37114e-08 15L-6.11959e-07 2C-6.36101e-07 1.44772 0.447715 1 0.999999 1L21.6538 1C22.5349 1 22.9854 2.05692 22.3752 2.69253L17.4648 7.80747C17.0933 8.19443 17.0933 8.80557 17.4648 9.19253L22.3752 14.3075C22.9854 14.9431 22.5349 16 21.6538 16L1 16Z" fill="#6E48EB"/>
<path d="M6.4498 10.5L6.4498 5.54H7.5798L7.6798 6.38C7.83314 6.08667 8.05314 5.85333 8.3398 5.68C8.63314 5.50667 8.97647 5.42 9.3698 5.42C9.98314 5.42 10.4598 5.61333 10.7998 6C11.1398 6.38667 11.3098 6.95333 11.3098 7.7V10.5H10.0298V7.82C10.0298 7.39333 9.94314 7.06667 9.7698 6.84C9.59647 6.61333 9.32647 6.5 8.9598 6.5C8.5998 6.5 8.30314 6.62667 8.0698 6.88C7.84314 7.13333 7.7298 7.48667 7.7298 7.94V10.5H6.4498Z" fill="white"/>
</svg>
