<svg width="20" height="20" viewBox="0 0 20 20" fill="none" xmlns="http://www.w3.org/2000/svg">
<circle cx="10" cy="10" r="10" fill="#EEEEF5"/>
<path d="M6.994 15V5.2H10.424C11.1893 5.2 11.824 5.33067 12.328 5.592C12.832 5.844 13.2053 6.194 13.448 6.642C13.7 7.08067 13.826 7.58 13.826 8.14C13.826 8.672 13.7047 9.162 13.462 9.61C13.2287 10.0487 12.86 10.3987 12.356 10.66C11.852 10.9213 11.208 11.052 10.424 11.052H8.478V15H6.994ZM8.478 9.834H10.354C11.054 9.834 11.5533 9.68467 11.852 9.386C12.16 9.078 12.314 8.66267 12.314 8.14C12.314 7.59867 12.16 7.17867 11.852 6.88C11.5533 6.572 11.054 6.418 10.354 6.418H8.478V9.834Z" fill="#6E48EB"/>
</svg>
