<svg enable-background="new 0 0 32 32" viewBox="0 0 32 32" xmlns="http://www.w3.org/2000/svg"><g id="Layer_1" display="none"/><g id="Layer_2"/><g id="Layer_3"><path d="m21.563 4.432h-11.125c-4.598 0-8.338 3.74-8.338 8.338v2.188c0 4.597 3.74 8.337 8.337 8.337h.324l-.54 2.937c-.084.46.118.918.516 1.166.185.115.391.172.598.172.238 0 .475-.076.676-.226l5.418-4.048h4.133c4.597 0 8.337-3.74 8.337-8.337v-2.189c.001-4.598-3.739-8.338-8.336-8.338zm6.537 10.525c0 3.605-2.933 6.538-6.538 6.538h-4.432c-.194 0-.383.063-.539.179l-4.291 3.206.427-2.323c.048-.263-.023-.533-.194-.739-.171-.205-.424-.324-.691-.324h-1.405c-3.605 0-6.538-2.933-6.538-6.538v-2.186c0-3.605 2.933-6.538 6.538-6.538h11.125c3.605 0 6.538 2.933 6.538 6.538z"/><path d="m10.74 12.415c-.8 0-1.448.648-1.448 1.448s.648 1.448 1.448 1.448 1.448-.648 1.448-1.448c-.001-.8-.649-1.448-1.448-1.448z"/><path d="m16 12.415c-.8 0-1.448.648-1.448 1.448s.648 1.448 1.448 1.448 1.448-.648 1.448-1.448-.648-1.448-1.448-1.448z"/><path d="m21.26 12.415c-.8 0-1.448.648-1.448 1.448s.648 1.448 1.448 1.448 1.448-.648 1.448-1.448-.648-1.448-1.448-1.448z"/></g><g id="Layer_4"/><g id="Layer_5"/><g id="Layer_6"/><g id="Layer_7"/><g id="Layer_8"/><g id="Layer_9"/><g id="Layer_10"/><g id="Layer_11"/><g id="Layer_12"/><g id="Layer_13"/><g id="Layer_14"/><g id="Layer_15"/><g id="Layer_16"/><g id="Layer_17"/><g id="Layer_18"/><g id="Layer_19"/><g id="Layer_20"/><g id="Layer_21"/><g id="Layer_22"/><g id="Layer_23"/><g id="Layer_24"/><g id="Layer_25"/><g id="Layer_26"/></svg>