<svg width="26" height="35" viewBox="0 0 26 35" fill="none" xmlns="http://www.w3.org/2000/svg">
<path d="M0 17.1866H2.39935V19.6562H0V17.1866ZM4.37824 21.9313H7.40827V18.8126H4.37824V21.9313ZM6.6222 12.5517H2.84723V16.4371H6.6222V12.5517ZM10.5099 6.94927V9.21343C10.5099 9.59758 10.7552 9.93783 11.1147 10.046L25.0065 14.2827L24.9913 34.0016L10.5632 29.605C9.42677 29.2584 8.64679 28.1828 8.64831 26.9629L8.65136 22.7404H11.9922V19.5683H16.2988V14.2843H11.165V18.8157H8.65441L8.66355 7.01669C8.66355 5.79681 9.44505 4.72275 10.583 4.37779L25.0187 0V1.90039L11.1147 6.11511C10.7552 6.2233 10.5084 6.56355 10.5084 6.94927H10.5099ZM14.4723 24.1672H12.5741V26.1209H14.4723V24.1672ZM19.2054 17.7213H20.7532V16.1282H19.2054V17.7213ZM16.5806 24.3883H19.2801V21.6099H16.5806V24.3883Z" fill="#A3A3A5"/>
</svg>
