<svg width="56" height="64" viewBox="0 0 56 64" fill="none" xmlns="http://www.w3.org/2000/svg">
<path d="M26.0126 1.55822C26.5264 -0.446314 29.3735 -0.446313 29.8874 1.55822L34.7379 20.4814C34.9646 21.3661 35.7619 21.9848 36.6752 21.9848L53.2124 21.9848C55.0341 21.9848 55.9073 24.2218 54.5672 25.456L40.4358 38.4706C39.8943 38.9693 39.6705 39.7252 39.8533 40.4383L45.0521 60.7204C45.5467 62.6497 43.2249 64.0373 41.7599 62.6881L29.3049 51.2174C28.5392 50.5123 27.3607 50.5123 26.5951 51.2174L14.1401 62.6881C12.6751 64.0374 10.3533 62.6497 10.8479 60.7204L16.0467 40.4383C16.2294 39.7252 16.0057 38.9693 15.4642 38.4706L1.33274 25.456C-0.00728763 24.2218 0.86589 21.9848 2.68763 21.9848L19.2248 21.9848C20.1381 21.9848 20.9354 21.3661 21.1621 20.4814L26.0126 1.55822Z" fill="#FFBF00"/>
</svg>
